<svg width="191" height="183" viewBox="0 0 191 183" fill="none" xmlns="http://www.w3.org/2000/svg">
<g id="Group 6">
<g id="Path" filter="url(#filter0_d_0_201)">
<path fill-rule="evenodd" clip-rule="evenodd" d="M50.9305 29.8856V83.7552L92.8987 107.791L140.286 79.7663V25.8967" fill="#FF9271"/>
</g>
<path id="Path_2" d="M92.8987 53.9217V107.791L140.286 79.7663V25.8967L92.8987 53.9217Z" fill="#DF5C34"/>
<path id="Path_3" d="M50.9305 29.8857L99.6244 2.13L140.286 25.8967L92.8987 53.9217L50.9305 29.8857Z" fill="#F47B56"/>
<path id="Shape" fill-rule="evenodd" clip-rule="evenodd" d="M108.22 17.6239C103.879 15.2468 98.9501 14.161 94.0132 14.4943C88.8335 14.5857 83.7728 16.0649 79.3577 18.7783C77.0421 20.0967 75.1999 22.1116 74.0924 24.5372C73.1692 26.6375 73.1692 29.0295 74.0924 31.1298C75.2104 33.5121 77.0719 35.4659 79.3961 36.6963C82.2759 38.3243 85.4507 39.362 88.7352 39.7489C92.3487 40.2491 96.0179 40.1842 99.6116 39.5565C102.909 39.0548 106.077 37.9133 108.938 36.1961C109.931 35.5891 110.854 34.8751 111.692 34.067C112.328 33.4643 112.895 32.7933 113.383 32.0661C113.721 31.5266 113.997 30.9499 114.203 30.3474C114.346 29.9716 114.462 29.5858 114.549 29.193C114.557 29.0478 114.557 28.9022 114.549 28.757L109.796 28.4876L109.617 29.2956C109.359 30.1096 108.921 30.8549 108.336 31.4761C107.461 32.4918 106.427 33.3581 105.274 34.0413C101.942 36.017 98.1285 37.0292 94.2566 36.9656C90.3677 37.1301 86.5095 36.211 83.1112 34.3106C79.9982 32.4765 78.3969 30.1935 78.3969 27.6283C78.3712 25.0117 79.8701 22.7586 82.8935 20.8689C86.2157 18.8428 90.021 17.7486 93.9108 17.7009C97.581 17.4591 101.244 18.2735 104.467 20.048C107.499 21.8437 108.131 23.293 106.363 24.3961C105.067 25.0939 103.508 25.0939 102.212 24.3961L93.8723 19.4837L90.2725 21.7283L91.5536 22.4978H90.849C90.1591 22.5362 89.4759 22.6524 88.812 22.8441C87.9796 23.0605 87.1848 23.4021 86.4549 23.8574C84.9035 24.594 83.9086 26.153 83.8927 27.872C83.9696 29.4624 84.9944 30.8476 86.9929 32.0276C89.1063 33.2422 91.5132 33.8502 93.9492 33.7848C96.3036 33.8309 98.6241 33.2179 100.649 32.0148C101.518 31.5225 102.243 30.8104 102.75 29.9498C103.055 29.487 103.232 28.9515 103.263 28.3978C103.234 28.1641 103.174 27.9353 103.083 27.718L104.057 27.795C104.949 27.8212 105.84 27.7306 106.709 27.5256C107.766 27.312 108.776 26.9125 109.694 26.3456C111.628 25.1785 112.448 23.7933 112.256 22.2028C112.064 20.6124 110.706 19.0861 108.22 17.6239ZM97.075 25.7556C97.9063 26.1167 98.5056 26.8656 98.6764 27.7565H98.7276C98.7408 28.5764 98.2682 29.3265 97.5234 29.6676C96.5394 30.2495 95.4119 30.5428 94.2695 30.5141C93.0809 30.5416 91.9073 30.2446 90.8746 29.6548C90.0535 29.2945 89.4803 28.5309 89.3629 27.6411C89.3822 26.7866 89.8766 26.0145 90.644 25.6402C91.5787 25.0801 92.6557 24.8039 93.7442 24.845C94.9156 24.8465 96.0654 25.1609 97.075 25.7556Z" fill="#3E2928"/>
</g>
<defs>
<filter id="filter0_d_0_201" x="0.930481" y="0.896729" width="189.355" height="181.895" filterUnits="userSpaceOnUse" color-interpolation-filters="sRGB">
<feFlood flood-opacity="0" result="BackgroundImageFix"/>
<feColorMatrix in="SourceAlpha" type="matrix" values="0 0 0 0 0 0 0 0 0 0 0 0 0 0 0 0 0 0 127 0" result="hardAlpha"/>
<feOffset dy="25"/>
<feGaussianBlur stdDeviation="25"/>
<feColorMatrix type="matrix" values="0 0 0 0 0.209139 0 0 0 0 0.0691446 0 0 0 0 0.478091 0 0 0 0.497159 0"/>
<feBlend mode="normal" in2="BackgroundImageFix" result="effect1_dropShadow_0_201"/>
<feBlend mode="normal" in="SourceGraphic" in2="effect1_dropShadow_0_201" result="shape"/>
</filter>
</defs>
</svg>
